<svg xmlns:dc="http://purl.org/dc/elements/1.1/" xmlns:cc="http://creativecommons.org/ns#" xmlns:rdf="http://www.w3.org/1999/02/22-rdf-syntax-ns#" xmlns:svg="http://www.w3.org/2000/svg" xmlns="http://www.w3.org/2000/svg" xmlns:sodipodi="http://sodipodi.sourceforge.net/DTD/sodipodi-0.dtd" xmlns:inkscape="http://www.inkscape.org/namespaces/inkscape" version="1.1" x="0px" y="0px" viewBox="0 0 100 100" enable-background="new 0 0 100 100" xml:space="preserve"><path clip-rule="evenodd" d="m 15.778759,54.505837 c 4.979942,0 9.015884,4.03489 9.015884,9.014832 0,4.979943 -4.035942,9.016936 -9.015884,9.016936 -4.977837,0 -9.0158837,-4.036993 -9.0158837,-9.016936 0,-4.979942 4.0369947,-9.014832 9.0158837,-9.014832 l 0,0 z m 0,4.812611 c -2.320535,0 -4.201168,1.882738 -4.201168,4.203273 0,2.320536 1.880633,4.203274 4.201168,4.203274 2.321588,0 4.203273,-1.882738 4.203273,-4.203274 0,-2.320535 -1.881685,-4.203273 -4.203273,-4.203273 z" style="" fill-rule="evenodd" fill="#000000" stroke="none"></path><path clip-rule="evenodd" d="m 81.968208,54.505837 c 4.979942,0 9.015884,4.03489 9.015884,9.014832 0,4.979943 -4.035942,9.016936 -9.015884,9.016936 -4.977837,0 -9.014831,-4.036993 -9.014831,-9.016936 0,-4.979942 4.036994,-9.014832 9.014831,-9.014832 l 0,0 z m 0,4.812611 c -2.320535,0 -4.20222,1.882738 -4.20222,4.203273 0,2.320536 1.881685,4.203274 4.20222,4.203274 2.321588,0 4.203274,-1.882738 4.203274,-4.203274 0,-2.320535 -1.881686,-4.203273 -4.203274,-4.203273 z" style="" fill-rule="evenodd" fill="#000000" stroke="none"></path><path clip-rule="evenodd" d="m 36.860373,27.462394 c 14.949298,0.0042 14.938774,0.0042 36.077218,0.0084 l 27.062382,18.038082 -10e-4,18.034925 -7.923495,6.022869 c 1.058711,-1.765923 1.669101,-3.833883 1.669101,-6.044969 0,-6.503813 -5.272508,-11.775269 -11.775268,-11.775269 -6.502761,0 -11.774216,5.272509 -11.774216,11.775269 0,2.212139 0.61039,4.279046 1.671206,6.044969 l -45.735064,0 c 1.038716,-1.774343 1.634373,-3.839145 1.634373,-6.044969 0,-6.620629 -5.366172,-11.985748 -11.986801,-11.985748 -6.6185237,0 -11.9868,5.365119 -11.9868,11.985748 0,2.205824 0.5967091,4.27168 1.6364773,6.044969 L 2.68e-5,65.36955 0.0611318,47.142547 2.3261325,42.43605 l 3.8070478,5.113307 2.562961,-6.701062 5.0370037,5.527804 3.093724,-5.454156 4.999013,1.580236 z m 3.006698,3.007751 -12.028896,12.032053 27.060281,0 0,-12.027844 z m 18.01493,0.0063 0,12.025739 24.114622,0 L 69.967727,30.47855 z" style="" fill-rule="evenodd" fill="#000000" stroke="none"></path></svg>