<svg xmlns="http://www.w3.org/2000/svg" xmlns:xlink="http://www.w3.org/1999/xlink" version="1.1" x="0px" y="0px" viewBox="0 0 91 91" enable-background="new 0 0 91 91" xml:space="preserve"><g><path d="M6.572,30.697c-1.193,0-2.16,0.967-2.16,2.16v32.055c0,1.193,0.967,2.16,2.16,2.16s2.16-0.967,2.16-2.16V50.83h6.619   v14.082c0,0.441,0.359,0.801,0.801,0.801h20.834l7.629,9.314c0.152,0.186,0.379,0.293,0.619,0.293h23.816   c0.441,0,0.801-0.357,0.801-0.799V62.721h6.434v6.914c0,0.441,0.359,0.799,0.801,0.799h6.637c0.332,0,0.629-0.203,0.748-0.514   c8.316-21.713,0.279-35.094-0.068-35.652c-0.145-0.236-0.402-0.379-0.68-0.379h-6.637c-0.441,0-0.801,0.357-0.801,0.799v6.201   h-6.434v-8.045c0-0.441-0.359-0.799-0.801-0.799H58.066v-5.977c0-0.441-0.359-0.801-0.801-0.801h-9.932v-5.934h8.174   c1.768,0,3.201-1.432,3.201-3.199s-1.434-3.201-3.201-3.201H26.162c-1.768,0-3.199,1.434-3.199,3.201s1.432,3.199,3.199,3.199   h8.502v5.934h-8.502c-0.441,0-0.799,0.359-0.799,0.801v5.977h-9.211c-0.441,0-0.801,0.357-0.801,0.799V46.51H8.732V32.857   C8.732,31.664,7.766,30.697,6.572,30.697z M38.984,19.334h4.033v5.934h-4.033V19.334z"></path></g></svg>