<svg xmlns="http://www.w3.org/2000/svg" xmlns:xlink="http://www.w3.org/1999/xlink" version="1.1" x="0px" y="0px" viewBox="0 0 100 100" style="enable-background:new 0 0 100 100;" xml:space="preserve"><style type="text/css">
	.st0{fill:#010002;}
</style><path class="st0" d="M89.5,16.2c0-5.4-4.4-9.9-9.9-9.9c-5.4,0-9.9,4.4-9.9,9.9c0,4,2.4,7.5,5.9,9V48H53.7V25.3  c3.6-1.5,6.2-5,6.2-9.1c0-5.4-4.4-9.9-9.9-9.9s-9.9,4.4-9.9,9.9c0,4.1,2.5,7.7,6.2,9.1V48H24.4V25.2c3.5-1.5,5.9-5,5.9-9  c0-5.4-4.4-9.9-9.9-9.9c-5.4,0-9.9,4.4-9.9,9.9c0,4.2,2.7,7.8,6.4,9.2V48v7.4v20.9c-3.7,1.4-6.4,5-6.4,9.2c0,5.4,4.4,9.9,9.9,9.9  c5.4,0,9.9-4.4,9.9-9.9c0-4-2.4-7.5-5.9-9v-21h21.9v20.9c-3.6,1.5-6.2,5-6.2,9.1c0,5.4,4.4,9.9,9.9,9.9s9.9-4.4,9.9-9.9  c0-4.1-2.5-7.7-6.2-9.1V55.4h21.9h7.4V48V25.4C86.8,24,89.5,20.4,89.5,16.2z"></path></svg>